<?xml version="1.0" standalone="no"?>
<!DOCTYPE svg PUBLIC "-//W3C//DTD SVG 20010904//EN"
 "http://www.w3.org/TR/2001/REC-SVG-20010904/DTD/svg10.dtd">
<svg version="1.0" xmlns="http://www.w3.org/2000/svg"
 width="222.000000pt" height="250.000000pt" viewBox="0 0 222.000000 250.000000"
 preserveAspectRatio="xMidYMid meet">
<metadata>
Created by potrace 1.10, written by Peter Selinger 2001-2011
</metadata>
<g transform="translate(0.000000,250.000000) scale(0.100000,-0.100000)"
fill="#000000" stroke="none">
<path d="M89 2482 c-31 -2 -53 -10 -65 -23 -18 -20 -18 -72 -18 -1213 0 -1113
1 -1195 17 -1220 l17 -26 1069 0 1068 0 13 25 c11 20 11 27 0 40 -11 13 -11
20 0 40 11 20 11 29 1 49 -10 19 -10 27 0 44 11 17 11 25 0 45 -11 20 -11 28
0 45 11 17 11 25 -1 46 -11 22 -11 28 3 44 15 17 15 20 0 41 -13 19 -14 28 -5
42 16 25 15 44 -3 59 -14 12 -14 15 1 31 14 16 15 23 5 48 -10 23 -10 33 1 50
11 18 10 23 -4 38 -16 15 -16 18 -1 44 16 26 16 29 0 47 -16 17 -16 21 -2 32
19 16 19 39 0 60 -14 15 -14 18 0 30 18 15 19 42 3 58 -10 10 -10 17 0 32 16
26 15 45 -3 60 -14 12 -14 15 0 30 18 20 19 42 3 58 -9 9 -8 17 2 37 11 21 11
29 0 50 -10 20 -11 28 -2 37 17 17 15 43 -3 58 -14 12 -14 15 1 31 14 16 15
23 4 49 -11 26 -10 33 3 48 14 15 14 19 -4 41 -18 21 -18 26 -4 41 19 21 19
34 0 50 -14 12 -14 15 0 30 18 20 19 42 3 58 -9 9 -8 17 2 37 11 21 11 29 0
50 -10 20 -11 28 -2 37 17 17 15 43 -3 58 -14 12 -14 15 0 30 18 20 19 42 3
58 -9 9 -8 18 2 37 12 22 12 30 1 47 -10 17 -10 25 0 44 10 20 10 29 -1 49
-11 21 -11 27 3 43 15 17 15 20 1 41 -14 19 -14 27 -3 47 11 21 10 27 -4 41
-15 15 -15 18 1 45 15 26 15 29 0 45 -16 15 -16 18 2 43 19 27 19 28 -1 46
-20 18 -57 19 -1038 19 -559 0 -1037 -1 -1062 -3z m2091 -42 c0 -5 -18 -10
-40 -10 -39 0 -40 -1 -40 -35 0 -34 1 -35 40 -35 23 0 40 -5 40 -11 0 -7 -15
-10 -40 -7 l-40 4 0 -37 c0 -35 1 -36 36 -35 21 0 39 -4 41 -11 3 -8 -8 -10
-36 -6 l-41 6 0 -37 c0 -35 1 -36 40 -36 22 0 40 -4 40 -10 0 -5 -18 -10 -40
-10 -39 0 -40 -1 -40 -35 0 -34 1 -35 40 -35 22 0 40 -4 40 -10 0 -5 -18 -10
-40 -10 -39 0 -40 -1 -40 -35 0 -34 1 -35 40 -35 22 0 40 -4 40 -10 0 -5 -18
-10 -40 -10 -39 0 -40 -1 -40 -35 0 -34 1 -35 40 -35 22 0 40 -4 40 -10 0 -5
-18 -10 -40 -10 -39 0 -40 -1 -40 -35 0 -34 1 -35 40 -35 22 0 40 -4 40 -10 0
-5 -18 -10 -40 -10 -39 0 -40 -1 -40 -35 0 -34 1 -35 40 -35 22 0 40 -4 40
-10 0 -5 -18 -10 -40 -10 -39 0 -40 -1 -40 -35 0 -34 1 -35 40 -35 22 0 40 -4
40 -10 0 -5 -18 -10 -40 -10 -39 0 -40 -1 -40 -35 0 -34 1 -35 40 -35 23 0 40
-5 40 -11 0 -8 -14 -10 -40 -6 l-40 5 0 -38 0 -38 40 5 c32 5 40 2 40 -10 0
-12 -8 -14 -40 -10 l-40 6 0 -39 0 -40 40 4 c25 3 40 0 40 -7 0 -6 -17 -11
-40 -11 -39 0 -40 -1 -40 -35 0 -34 1 -35 40 -35 22 0 40 -4 40 -10 0 -5 -18
-10 -40 -10 -39 0 -40 -1 -40 -35 0 -34 1 -35 40 -35 22 0 40 -4 40 -10 0 -5
-18 -10 -40 -10 -39 0 -40 -1 -40 -35 0 -34 1 -35 40 -35 22 0 40 -4 40 -10 0
-5 -18 -10 -40 -10 -39 0 -40 -1 -40 -35 0 -34 1 -35 40 -35 22 0 40 -4 40
-10 0 -5 -18 -10 -40 -10 -39 0 -40 -1 -40 -35 0 -34 1 -35 40 -35 22 0 40 -4
40 -10 0 -5 -18 -10 -40 -10 -39 0 -40 -1 -40 -35 0 -34 1 -35 40 -35 22 0 40
-4 40 -10 0 -5 -18 -10 -40 -10 -39 0 -40 -1 -40 -35 0 -34 1 -35 40 -35 23 0
40 -5 40 -11 0 -7 -15 -10 -40 -7 l-40 4 0 -37 c0 -35 1 -36 36 -35 21 0 39
-4 41 -11 3 -8 -8 -10 -36 -6 l-41 6 0 -37 c0 -35 1 -36 40 -36 22 0 40 -4 40
-10 0 -5 -18 -10 -40 -10 -39 0 -40 -1 -40 -35 0 -34 1 -35 40 -35 22 0 40 -4
40 -10 0 -5 -18 -10 -40 -10 -39 0 -40 -1 -40 -35 0 -34 1 -35 40 -35 22 0 40
-4 40 -10 0 -5 -18 -10 -40 -10 -39 0 -40 -1 -40 -35 0 -34 1 -35 40 -35 22 0
40 -4 40 -10 0 -5 -18 -10 -40 -10 -39 0 -40 -1 -40 -35 0 -34 1 -35 40 -35
22 0 40 -4 40 -10 0 -5 -18 -10 -40 -10 -39 0 -40 -1 -40 -35 0 -34 1 -35 40
-35 22 0 40 -4 40 -10 0 -5 -18 -10 -40 -10 -39 0 -40 -1 -40 -35 0 -34 1 -35
40 -35 22 0 40 -4 40 -10 0 -7 -363 -10 -1070 -10 l-1070 0 0 1210 0 1210
1070 0 c707 0 1070 -3 1070 -10z"/>
<path d="M50 2395 c0 -33 2 -35 35 -35 33 0 35 2 35 35 0 33 -2 35 -35 35 -33
0 -35 -2 -35 -35z"/>
<path d="M140 2395 c0 -33 2 -35 35 -35 33 0 35 2 35 35 0 33 -2 35 -35 35
-33 0 -35 -2 -35 -35z"/>
<path d="M230 2395 c0 -33 2 -35 35 -35 33 0 35 2 35 35 0 33 -2 35 -35 35
-33 0 -35 -2 -35 -35z"/>
<path d="M320 2395 c0 -33 2 -35 35 -35 33 0 35 2 35 35 0 33 -2 35 -35 35
-33 0 -35 -2 -35 -35z"/>
<path d="M410 2395 c0 -33 2 -35 35 -35 33 0 35 2 35 35 0 33 -2 35 -35 35
-33 0 -35 -2 -35 -35z"/>
<path d="M500 2395 c0 -33 2 -35 35 -35 33 0 35 2 35 35 0 33 -2 35 -35 35
-33 0 -35 -2 -35 -35z"/>
<path d="M590 2395 c0 -33 2 -35 35 -35 33 0 35 2 35 35 0 33 -2 35 -35 35
-33 0 -35 -2 -35 -35z"/>
<path d="M678 2395 c4 -32 7 -35 37 -35 31 0 33 2 32 35 -1 33 -3 35 -37 35
-35 0 -36 -1 -32 -35z"/>
<path d="M760 2395 c0 -33 2 -35 35 -35 33 0 35 2 35 35 0 33 -2 35 -35 35
-33 0 -35 -2 -35 -35z"/>
<path d="M850 2395 c0 -33 2 -35 35 -35 33 0 35 2 35 35 0 33 -2 35 -35 35
-33 0 -35 -2 -35 -35z"/>
<path d="M940 2395 c0 -33 2 -35 35 -35 33 0 35 2 35 35 0 33 -2 35 -35 35
-33 0 -35 -2 -35 -35z"/>
<path d="M1030 2395 c0 -33 2 -35 35 -35 33 0 35 2 35 35 0 33 -2 35 -35 35
-33 0 -35 -2 -35 -35z"/>
<path d="M1120 2395 c0 -33 2 -35 35 -35 33 0 35 2 35 35 0 33 -2 35 -35 35
-33 0 -35 -2 -35 -35z"/>
<path d="M1210 2395 c0 -33 2 -35 35 -35 33 0 35 2 35 35 0 33 -2 35 -35 35
-33 0 -35 -2 -35 -35z"/>
<path d="M1300 2395 c0 -33 2 -35 35 -35 33 0 35 2 35 35 0 33 -2 35 -35 35
-33 0 -35 -2 -35 -35z"/>
<path d="M1390 2395 c0 -33 2 -35 35 -35 33 0 35 2 35 35 0 33 -2 35 -35 35
-33 0 -35 -2 -35 -35z"/>
<path d="M1480 2395 c0 -33 2 -35 35 -35 33 0 35 2 35 35 0 33 -2 35 -35 35
-33 0 -35 -2 -35 -35z"/>
<path d="M1566 2398 c1 -30 4 -33 34 -33 30 0 33 3 34 33 1 30 -1 32 -34 32
-33 0 -35 -2 -34 -32z"/>
<path d="M1650 2395 c0 -33 2 -35 35 -35 33 0 35 2 35 35 0 33 -2 35 -35 35
-33 0 -35 -2 -35 -35z"/>
<path d="M1740 2395 c0 -33 2 -35 35 -35 33 0 35 2 35 35 0 33 -2 35 -35 35
-33 0 -35 -2 -35 -35z"/>
<path d="M1830 2395 c0 -33 2 -35 35 -35 33 0 35 2 35 35 0 33 -2 35 -35 35
-33 0 -35 -2 -35 -35z"/>
<path d="M1920 2395 c0 -33 2 -35 35 -35 33 0 35 2 35 35 0 33 -2 35 -35 35
-33 0 -35 -2 -35 -35z"/>
<path d="M2010 2395 c0 -33 2 -35 35 -35 33 0 35 2 35 35 0 33 -2 35 -35 35
-33 0 -35 -2 -35 -35z"/>
<path d="M83 2342 c-29 -3 -33 -7 -33 -31 0 -25 5 -29 33 -34 17 -2 33 -3 35
-2 2 2 2 18 0 36 -3 32 -5 34 -35 31z"/>
<path d="M140 2310 c0 -35 1 -36 35 -36 33 0 35 2 35 36 0 33 -2 35 -35 36
-34 0 -35 -1 -35 -36z"/>
<path d="M230 2310 c0 -35 1 -36 35 -36 33 0 35 2 35 36 0 33 -2 35 -35 36
-34 0 -35 -1 -35 -36z"/>
<path d="M320 2310 c0 -34 2 -36 35 -36 34 0 35 1 35 36 0 35 -1 36 -35 36
-33 -1 -35 -3 -35 -36z"/>
<path d="M410 2310 c0 -34 2 -36 35 -36 33 0 35 2 35 36 0 33 -2 35 -35 35
-33 0 -35 -2 -35 -35z"/>
<path d="M500 2310 c0 -34 2 -36 35 -36 33 0 35 2 35 36 0 33 -2 35 -35 35
-33 0 -35 -2 -35 -35z"/>
<path d="M590 2310 c0 -34 2 -36 35 -36 35 0 36 1 33 35 -3 31 -6 34 -36 35
-30 1 -32 -1 -32 -34z"/>
<path d="M679 2343 c0 -2 -1 -18 -2 -35 -1 -31 1 -33 34 -32 32 0 34 3 34 34
0 30 -3 33 -33 34 -17 1 -32 0 -33 -1z"/>
<path d="M763 2333 c-3 -6 -3 -21 -1 -34 2 -16 11 -22 36 -24 31 -3 32 -1 32
34 0 34 -2 36 -31 36 -17 0 -34 -5 -36 -12z"/>
<path d="M850 2310 c0 -34 2 -36 35 -36 33 0 35 2 35 36 0 33 -2 35 -35 35
-33 0 -35 -2 -35 -35z"/>
<path d="M940 2310 c0 -34 2 -36 35 -36 33 0 35 2 35 36 0 33 -2 35 -35 35
-33 0 -35 -2 -35 -35z"/>
<path d="M1030 2310 c0 -35 1 -36 35 -36 33 0 35 2 35 36 0 33 -2 35 -35 36
-34 0 -35 -1 -35 -36z"/>
<path d="M1120 2310 c0 -34 2 -36 35 -36 33 0 35 2 35 36 0 33 -2 35 -35 35
-33 0 -35 -2 -35 -35z"/>
<path d="M1210 2310 c0 -34 1 -36 35 -36 34 0 35 2 35 36 0 34 -1 36 -35 36
-34 0 -35 -2 -35 -36z"/>
<path d="M1300 2310 c0 -34 2 -36 35 -36 33 0 35 2 35 36 0 33 -2 35 -35 35
-33 0 -35 -2 -35 -35z"/>
<path d="M1390 2310 c0 -34 2 -36 35 -36 33 0 35 2 35 36 0 33 -2 35 -35 35
-33 0 -35 -2 -35 -35z"/>
<path d="M1480 2309 c0 -35 1 -37 33 -34 29 2 32 5 32 35 0 30 -3 33 -33 34
-30 1 -32 -1 -32 -35z"/>
<path d="M1569 2343 c0 -2 -1 -17 -2 -35 -1 -29 2 -32 33 -32 31 0 34 3 34 34
0 30 -3 33 -32 34 -18 1 -32 0 -33 -1z"/>
<path d="M1653 2333 c-3 -6 -3 -21 -1 -34 2 -16 11 -22 36 -24 31 -3 32 -1 32
34 0 34 -2 36 -31 36 -17 0 -34 -5 -36 -12z"/>
<path d="M1740 2310 c0 -34 2 -36 35 -36 33 0 35 2 35 36 0 33 -2 35 -35 35
-33 0 -35 -2 -35 -35z"/>
<path d="M1830 2310 c0 -35 1 -36 35 -36 33 0 35 2 35 36 0 33 -2 35 -35 36
-34 0 -35 -1 -35 -36z"/>
<path d="M1920 2310 c0 -35 1 -36 35 -36 33 0 35 2 35 36 0 33 -2 35 -35 36
-34 0 -35 -1 -35 -36z"/>
<path d="M2010 2310 c0 -34 2 -36 35 -36 34 0 35 1 35 36 0 35 -1 36 -35 36
-33 -1 -35 -3 -35 -36z"/>
<path d="M50 2225 c0 -33 2 -35 35 -35 33 0 35 2 35 35 0 33 -2 35 -35 35 -33
0 -35 -2 -35 -35z"/>
<path d="M140 2225 c0 -33 2 -35 35 -35 33 0 35 2 35 35 0 33 -2 35 -35 35
-33 0 -35 -2 -35 -35z"/>
<path d="M230 2225 c0 -33 2 -35 35 -35 33 0 35 2 35 35 0 33 -2 35 -35 35
-33 0 -35 -2 -35 -35z"/>
<path d="M320 2225 c0 -33 2 -35 35 -35 33 0 35 2 35 35 0 33 -2 35 -35 35
-33 0 -35 -2 -35 -35z"/>
<path d="M410 2225 c0 -33 2 -35 35 -35 33 0 35 2 35 35 0 33 -2 35 -35 35
-33 0 -35 -2 -35 -35z"/>
<path d="M500 2225 c0 -33 2 -35 35 -35 33 0 35 2 35 35 0 33 -2 35 -35 35
-33 0 -35 -2 -35 -35z"/>
<path d="M590 2225 c0 -33 2 -35 35 -35 33 0 35 2 35 35 0 33 -2 35 -35 35
-33 0 -35 -2 -35 -35z"/>
<path d="M679 2258 c0 -2 -1 -18 -2 -36 -2 -31 0 -32 34 -32 35 0 37 2 35 33
-1 28 -5 32 -34 35 -17 2 -32 2 -33 0z"/>
<path d="M760 2225 c0 -33 2 -35 35 -35 33 0 35 2 35 35 0 33 -2 35 -35 35
-33 0 -35 -2 -35 -35z"/>
<path d="M850 2225 c0 -33 2 -35 35 -35 33 0 35 2 35 35 0 33 -2 35 -35 35
-33 0 -35 -2 -35 -35z"/>
<path d="M940 2225 c0 -33 2 -35 35 -35 33 0 35 2 35 35 0 33 -2 35 -35 35
-33 0 -35 -2 -35 -35z"/>
<path d="M1030 2225 c0 -33 2 -35 35 -35 33 0 35 2 35 35 0 33 -2 35 -35 35
-33 0 -35 -2 -35 -35z"/>
<path d="M1120 2225 c0 -33 2 -35 35 -35 33 0 35 2 35 35 0 33 -2 35 -35 35
-33 0 -35 -2 -35 -35z"/>
<path d="M1210 2225 c0 -33 2 -35 35 -35 33 0 35 2 35 35 0 33 -2 35 -35 35
-33 0 -35 -2 -35 -35z"/>
<path d="M1300 2225 c0 -33 2 -35 35 -35 33 0 35 2 35 35 0 33 -2 35 -35 35
-33 0 -35 -2 -35 -35z"/>
<path d="M1390 2225 c0 -33 2 -35 35 -35 33 0 35 2 35 35 0 33 -2 35 -35 35
-33 0 -35 -2 -35 -35z"/>
<path d="M1480 2225 c0 -33 2 -35 35 -35 33 0 35 2 35 35 0 33 -2 35 -35 35
-33 0 -35 -2 -35 -35z"/>
<path d="M1569 2258 c0 -2 -2 -18 -3 -35 -4 -32 -2 -33 33 -33 34 0 36 2 35
32 -1 29 -4 33 -32 36 -18 2 -32 2 -33 0z"/>
<path d="M1650 2225 c0 -33 2 -35 35 -35 33 0 35 2 35 35 0 33 -2 35 -35 35
-33 0 -35 -2 -35 -35z"/>
<path d="M1740 2225 c0 -33 2 -35 35 -35 33 0 35 2 35 35 0 33 -2 35 -35 35
-33 0 -35 -2 -35 -35z"/>
<path d="M1830 2225 c0 -33 2 -35 35 -35 33 0 35 2 35 35 0 33 -2 35 -35 35
-33 0 -35 -2 -35 -35z"/>
<path d="M1920 2225 c0 -33 2 -35 35 -35 33 0 35 2 35 35 0 33 -2 35 -35 35
-33 0 -35 -2 -35 -35z"/>
<path d="M2010 2225 c0 -33 2 -35 35 -35 33 0 35 2 35 35 0 33 -2 35 -35 35
-33 0 -35 -2 -35 -35z"/>
<path d="M50 2135 c0 -33 2 -35 35 -35 33 0 35 2 35 35 0 33 -2 35 -35 35 -33
0 -35 -2 -35 -35z"/>
<path d="M140 2135 c0 -33 2 -35 35 -35 33 0 35 2 35 35 0 33 -2 35 -35 35
-33 0 -35 -2 -35 -35z"/>
<path d="M230 2135 c0 -33 2 -35 35 -35 33 0 35 2 35 35 0 33 -2 35 -35 35
-33 0 -35 -2 -35 -35z"/>
<path d="M320 2135 c0 -33 2 -35 35 -35 33 0 35 2 35 35 0 33 -2 35 -35 35
-33 0 -35 -2 -35 -35z"/>
<path d="M410 2135 c0 -33 2 -35 35 -35 33 0 35 2 35 35 0 33 -2 35 -35 35
-33 0 -35 -2 -35 -35z"/>
<path d="M500 2135 c0 -33 2 -35 35 -35 33 0 35 2 35 35 0 33 -2 35 -35 35
-33 0 -35 -2 -35 -35z"/>
<path d="M590 2135 c0 -33 2 -35 35 -35 33 0 35 2 35 35 0 33 -2 35 -35 35
-33 0 -35 -2 -35 -35z"/>
<path d="M675 2135 c0 -33 2 -35 36 -35 33 0 35 2 35 35 0 33 -2 35 -35 35
-34 0 -36 -2 -36 -35z"/>
<path d="M760 2135 c0 -33 2 -35 35 -35 33 0 35 2 35 35 0 33 -2 35 -35 35
-33 0 -35 -2 -35 -35z"/>
<path d="M850 2135 c0 -33 2 -35 35 -35 33 0 35 2 35 35 0 33 -2 35 -35 35
-33 0 -35 -2 -35 -35z"/>
<path d="M940 2135 c0 -33 2 -35 35 -35 33 0 35 2 35 35 0 33 -2 35 -35 35
-33 0 -35 -2 -35 -35z"/>
<path d="M1030 2135 c0 -33 2 -35 35 -35 33 0 35 2 35 35 0 33 -2 35 -35 35
-33 0 -35 -2 -35 -35z"/>
<path d="M1120 2135 c0 -33 2 -35 35 -35 33 0 35 2 35 35 0 33 -2 35 -35 35
-33 0 -35 -2 -35 -35z"/>
<path d="M1210 2135 c0 -33 2 -35 35 -35 33 0 35 2 35 35 0 33 -2 35 -35 35
-33 0 -35 -2 -35 -35z"/>
<path d="M1300 2135 c0 -33 2 -35 35 -35 33 0 35 2 35 35 0 33 -2 35 -35 35
-33 0 -35 -2 -35 -35z"/>
<path d="M1390 2135 c0 -33 2 -35 35 -35 33 0 35 2 35 35 0 33 -2 35 -35 35
-33 0 -35 -2 -35 -35z"/>
<path d="M1480 2135 c0 -33 2 -35 35 -35 33 0 35 2 35 35 0 33 -2 35 -35 35
-33 0 -35 -2 -35 -35z"/>
<path d="M1564 2135 c0 -33 2 -35 36 -35 33 0 35 2 36 35 0 34 -1 35 -36 35
-35 0 -36 -1 -36 -35z"/>
<path d="M1650 2135 c0 -33 2 -35 35 -35 33 0 35 2 35 35 0 33 -2 35 -35 35
-33 0 -35 -2 -35 -35z"/>
<path d="M1740 2135 c0 -33 2 -35 35 -35 33 0 35 2 35 35 0 33 -2 35 -35 35
-33 0 -35 -2 -35 -35z"/>
<path d="M1830 2135 c0 -33 2 -35 35 -35 33 0 35 2 35 35 0 33 -2 35 -35 35
-33 0 -35 -2 -35 -35z"/>
<path d="M1920 2135 c0 -33 2 -35 35 -35 33 0 35 2 35 35 0 33 -2 35 -35 35
-33 0 -35 -2 -35 -35z"/>
<path d="M2010 2135 c0 -33 2 -35 35 -35 33 0 35 2 35 35 0 33 -2 35 -35 35
-33 0 -35 -2 -35 -35z"/>
<path d="M50 2045 c0 -33 2 -35 35 -35 33 0 35 2 35 35 0 33 -2 35 -35 35 -33
0 -35 -2 -35 -35z"/>
<path d="M140 2045 c0 -33 2 -35 35 -35 33 0 35 2 35 35 0 33 -2 35 -35 35
-33 0 -35 -2 -35 -35z"/>
<path d="M230 2045 c0 -33 2 -35 35 -35 33 0 35 2 35 35 0 33 -2 35 -35 35
-33 0 -35 -2 -35 -35z"/>
<path d="M320 2045 c0 -33 2 -35 35 -35 33 0 35 2 35 35 0 33 -2 35 -35 35
-33 0 -35 -2 -35 -35z"/>
<path d="M410 2045 c0 -33 2 -35 35 -35 33 0 35 2 35 35 0 33 -2 35 -35 35
-33 0 -35 -2 -35 -35z"/>
<path d="M500 2045 c0 -33 2 -35 35 -35 33 0 35 2 35 35 0 33 -2 35 -35 35
-33 0 -35 -2 -35 -35z"/>
<path d="M590 2045 c0 -33 2 -35 35 -35 33 0 35 2 35 35 0 33 -2 35 -35 35
-33 0 -35 -2 -35 -35z"/>
<path d="M675 2045 c0 -33 2 -35 36 -35 33 0 35 2 36 35 1 34 0 35 -35 35 -36
0 -37 -1 -37 -35z"/>
<path d="M760 2045 c0 -33 2 -35 35 -35 33 0 35 2 35 35 0 33 -2 35 -35 35
-33 0 -35 -2 -35 -35z"/>
<path d="M850 2045 c0 -33 2 -35 35 -35 33 0 35 2 35 35 0 33 -2 35 -35 35
-33 0 -35 -2 -35 -35z"/>
<path d="M940 2045 c0 -33 2 -35 35 -35 33 0 35 2 35 35 0 33 -2 35 -35 35
-33 0 -35 -2 -35 -35z"/>
<path d="M1030 2045 c0 -33 2 -35 35 -35 33 0 35 2 35 35 0 33 -2 35 -35 35
-33 0 -35 -2 -35 -35z"/>
<path d="M1120 2045 c0 -33 2 -35 35 -35 33 0 35 2 35 35 0 33 -2 35 -35 35
-33 0 -35 -2 -35 -35z"/>
<path d="M1210 2045 c0 -33 2 -35 35 -35 33 0 35 2 35 35 0 33 -2 35 -35 35
-33 0 -35 -2 -35 -35z"/>
<path d="M1300 2045 c0 -33 2 -35 35 -35 33 0 35 2 35 35 0 33 -2 35 -35 35
-33 0 -35 -2 -35 -35z"/>
<path d="M1390 2045 c0 -33 2 -35 35 -35 33 0 35 2 35 35 0 33 -2 35 -35 35
-33 0 -35 -2 -35 -35z"/>
<path d="M1480 2045 c0 -33 2 -35 35 -35 33 0 35 2 35 35 0 33 -2 35 -35 35
-33 0 -35 -2 -35 -35z"/>
<path d="M1564 2045 c0 -34 2 -35 36 -35 34 0 36 1 36 35 0 34 -2 35 -36 35
-34 0 -36 -1 -36 -35z"/>
<path d="M1650 2045 c0 -33 2 -35 35 -35 33 0 35 2 35 35 0 33 -2 35 -35 35
-33 0 -35 -2 -35 -35z"/>
<path d="M1740 2045 c0 -33 2 -35 35 -35 33 0 35 2 35 35 0 33 -2 35 -35 35
-33 0 -35 -2 -35 -35z"/>
<path d="M1830 2045 c0 -33 2 -35 35 -35 33 0 35 2 35 35 0 33 -2 35 -35 35
-33 0 -35 -2 -35 -35z"/>
<path d="M1920 2045 c0 -33 2 -35 35 -35 33 0 35 2 35 35 0 33 -2 35 -35 35
-33 0 -35 -2 -35 -35z"/>
<path d="M2010 2045 c0 -33 2 -35 35 -35 33 0 35 2 35 35 0 33 -2 35 -35 35
-33 0 -35 -2 -35 -35z"/>
<path d="M50 1955 c0 -33 2 -35 35 -35 33 0 35 2 35 35 0 33 -2 35 -35 35 -33
0 -35 -2 -35 -35z"/>
<path d="M140 1955 c0 -33 2 -35 35 -35 33 0 35 2 35 35 0 33 -2 35 -35 35
-33 0 -35 -2 -35 -35z"/>
<path d="M230 1955 c0 -33 2 -35 35 -35 33 0 35 2 35 35 0 33 -2 35 -35 35
-33 0 -35 -2 -35 -35z"/>
<path d="M320 1955 c0 -33 2 -35 35 -35 33 0 35 2 35 35 0 33 -2 35 -35 35
-33 0 -35 -2 -35 -35z"/>
<path d="M410 1955 c0 -33 2 -35 35 -35 33 0 35 2 35 35 0 33 -2 35 -35 35
-33 0 -35 -2 -35 -35z"/>
<path d="M500 1955 c0 -33 2 -35 35 -35 33 0 35 2 35 35 0 33 -2 35 -35 35
-33 0 -35 -2 -35 -35z"/>
<path d="M590 1955 c0 -33 2 -35 35 -35 33 0 35 2 35 35 0 33 -2 35 -35 35
-33 0 -35 -2 -35 -35z"/>
<path d="M674 1955 c0 -34 1 -35 37 -35 36 0 37 1 37 35 0 34 -1 35 -36 35
-35 0 -37 -2 -38 -35z"/>
<path d="M760 1955 c0 -34 1 -35 38 -35 38 0 38 0 34 35 -4 32 -7 35 -38 35
-32 0 -34 -2 -34 -35z"/>
<path d="M850 1955 c0 -33 2 -35 35 -35 33 0 35 2 35 35 0 33 -2 35 -35 35
-33 0 -35 -2 -35 -35z"/>
<path d="M940 1955 c0 -33 2 -35 35 -35 33 0 35 2 35 35 0 33 -2 35 -35 35
-33 0 -35 -2 -35 -35z"/>
<path d="M1030 1955 c0 -33 2 -35 35 -35 33 0 35 2 35 35 0 33 -2 35 -35 35
-33 0 -35 -2 -35 -35z"/>
<path d="M1120 1955 c0 -33 2 -35 35 -35 33 0 35 2 35 35 0 33 -2 35 -35 35
-33 0 -35 -2 -35 -35z"/>
<path d="M1210 1955 c0 -33 2 -35 35 -35 33 0 35 2 35 35 0 33 -2 35 -35 35
-33 0 -35 -2 -35 -35z"/>
<path d="M1300 1955 c0 -33 2 -35 35 -35 33 0 35 2 35 35 0 33 -2 35 -35 35
-33 0 -35 -2 -35 -35z"/>
<path d="M1390 1955 c0 -33 2 -35 35 -35 33 0 35 2 35 35 0 33 -2 35 -35 35
-33 0 -35 -2 -35 -35z"/>
<path d="M1478 1955 c-4 -35 -4 -35 34 -35 37 0 38 1 38 35 0 33 -2 35 -34 35
-31 0 -34 -3 -38 -35z"/>
<path d="M1564 1955 c0 -34 2 -35 36 -35 34 0 36 1 36 35 0 34 -2 35 -36 35
-34 0 -36 -1 -36 -35z"/>
<path d="M1650 1955 c0 -34 1 -35 38 -35 38 0 38 0 34 35 -4 32 -7 35 -38 35
-32 0 -34 -2 -34 -35z"/>
<path d="M1740 1955 c0 -33 2 -35 35 -35 33 0 35 2 35 35 0 33 -2 35 -35 35
-33 0 -35 -2 -35 -35z"/>
<path d="M1830 1955 c0 -33 2 -35 35 -35 33 0 35 2 35 35 0 33 -2 35 -35 35
-33 0 -35 -2 -35 -35z"/>
<path d="M1920 1955 c0 -33 2 -35 35 -35 33 0 35 2 35 35 0 33 -2 35 -35 35
-33 0 -35 -2 -35 -35z"/>
<path d="M2010 1955 c0 -33 2 -35 35 -35 33 0 35 2 35 35 0 33 -2 35 -35 35
-33 0 -35 -2 -35 -35z"/>
<path d="M50 1865 c0 -34 1 -35 38 -35 38 0 38 0 34 35 -4 32 -7 35 -38 35
-32 0 -34 -2 -34 -35z"/>
<path d="M850 1865 c0 -33 2 -35 35 -35 33 0 35 2 35 35 0 33 -2 35 -35 35
-33 0 -35 -2 -35 -35z"/>
<path d="M940 1865 c0 -33 2 -35 35 -35 33 0 35 2 35 35 0 33 -2 35 -35 35
-33 0 -35 -2 -35 -35z"/>
<path d="M1030 1865 c0 -33 2 -35 35 -35 33 0 35 2 35 35 0 33 -2 35 -35 35
-33 0 -35 -2 -35 -35z"/>
<path d="M1120 1865 c0 -33 2 -35 35 -35 33 0 35 2 35 35 0 33 -2 35 -35 35
-33 0 -35 -2 -35 -35z"/>
<path d="M1920 1865 c0 -33 2 -35 35 -35 33 0 35 2 35 35 0 33 -2 35 -35 35
-33 0 -35 -2 -35 -35z"/>
<path d="M2010 1865 c0 -33 2 -35 35 -35 33 0 35 2 35 35 0 33 -2 35 -35 35
-33 0 -35 -2 -35 -35z"/>
<path d="M50 1775 c0 -33 2 -35 35 -35 33 0 35 2 35 35 0 33 -2 35 -35 35 -33
0 -35 -2 -35 -35z"/>
<path d="M940 1775 c0 -33 2 -35 35 -35 33 0 35 2 35 35 0 33 -2 35 -35 35
-33 0 -35 -2 -35 -35z"/>
<path d="M1030 1775 c0 -33 2 -35 35 -35 33 0 35 2 35 35 0 33 -2 35 -35 35
-33 0 -35 -2 -35 -35z"/>
<path d="M1120 1775 c0 -33 2 -35 35 -35 33 0 35 2 35 35 0 33 -2 35 -35 35
-33 0 -35 -2 -35 -35z"/>
<path d="M2010 1775 c0 -33 2 -35 35 -35 33 0 35 2 35 35 0 33 -2 35 -35 35
-33 0 -35 -2 -35 -35z"/>
<path d="M50 1685 c0 -33 2 -35 35 -35 33 0 35 2 35 35 0 33 -2 35 -35 35 -33
0 -35 -2 -35 -35z"/>
<path d="M1030 1685 c0 -33 2 -35 35 -35 33 0 35 2 35 35 0 33 -2 35 -35 35
-33 0 -35 -2 -35 -35z"/>
<path d="M1120 1685 c0 -33 2 -35 35 -35 33 0 35 2 35 35 0 33 -2 35 -35 35
-33 0 -35 -2 -35 -35z"/>
<path d="M410 1599 c0 -38 1 -39 35 -39 34 0 35 1 35 39 0 38 -1 39 -35 39
-34 0 -35 -1 -35 -39z"/>
<path d="M500 1598 c0 -37 1 -38 35 -38 34 0 35 1 35 38 0 37 -1 38 -35 38
-34 0 -35 -1 -35 -38z"/>
<path d="M590 1598 c0 -37 1 -38 35 -38 34 0 35 1 35 39 0 38 -1 39 -35 38
-34 -1 -35 -2 -35 -39z"/>
<path d="M1030 1598 c0 -37 1 -38 35 -38 33 0 35 2 35 34 0 31 -3 34 -35 38
-35 4 -35 4 -35 -34z"/>
<path d="M1153 1633 c-30 -4 -33 -7 -33 -39 0 -32 2 -34 35 -34 34 0 35 1 35
40 0 22 -1 39 -2 38 -2 0 -18 -3 -35 -5z"/>
<path d="M1474 1625 c-3 -8 -4 -24 -2 -37 2 -19 10 -24 41 -26 l37 -3 0 39 c0
39 -1 40 -36 40 -20 0 -38 -6 -40 -13z"/>
<path d="M1566 1631 c-1 -3 -2 -19 -1 -36 2 -27 5 -30 35 -30 31 0 34 2 34 35
1 32 -1 34 -32 36 -18 1 -34 -1 -36 -5z"/>
<path d="M1650 1599 l0 -40 38 3 c35 3 37 5 37 38 0 33 -2 35 -37 37 -38 2
-38 2 -38 -38z"/>
<path d="M50 1595 c0 -33 2 -35 35 -35 33 0 35 2 35 35 0 33 -2 35 -35 35 -33
0 -35 -2 -35 -35z"/>
<path d="M78 1543 c-23 -4 -28 -9 -28 -34 0 -22 5 -29 19 -29 11 0 26 -3 35
-6 13 -5 16 2 16 35 0 23 -3 40 -7 40 -5 -1 -20 -4 -35 -6z"/>
<path d="M410 1510 c0 -34 1 -36 35 -36 34 0 35 2 35 36 0 34 -1 36 -35 36
-34 0 -35 -2 -35 -36z"/>
<path d="M500 1510 c0 -34 2 -36 35 -36 33 0 35 2 35 36 0 33 -2 35 -35 35
-33 0 -35 -2 -35 -35z"/>
<path d="M590 1509 c0 -35 1 -37 33 -34 29 2 32 6 35 37 3 34 2 35 -32 34 -34
-1 -36 -3 -36 -37z"/>
<path d="M679 1545 c0 -3 -1 -19 -2 -37 -1 -30 2 -32 36 -35 37 -2 37 -2 37
38 0 38 -1 39 -35 39 -19 0 -35 -2 -36 -5z"/>
<path d="M1030 1509 c0 -36 1 -37 35 -36 33 1 35 3 35 36 0 34 -2 36 -35 37
-34 0 -35 -1 -35 -37z"/>
<path d="M1120 1510 c0 -34 2 -36 35 -37 34 -1 35 0 35 36 0 36 -1 37 -35 37
-34 0 -35 -2 -35 -36z"/>
<path d="M1473 1535 c-2 -8 -3 -24 -1 -37 2 -19 9 -23 38 -22 33 0 35 3 35 34
0 30 -3 33 -33 35 -21 2 -35 -2 -39 -10z"/>
<path d="M1569 1543 c0 -2 -1 -17 -2 -35 -1 -29 2 -32 33 -32 32 -1 34 1 34
33 0 31 -3 34 -32 35 -18 1 -32 0 -33 -1z"/>
<path d="M1654 1541 c-2 -2 -4 -18 -4 -36 0 -29 2 -31 35 -31 33 0 35 2 35 36
0 32 -2 35 -31 35 -17 0 -33 -2 -35 -4z"/>
<path d="M1740 1512 c0 -37 1 -38 35 -38 34 0 35 1 35 38 0 37 -1 38 -35 38
-34 0 -35 -1 -35 -38z"/>
<path d="M50 1426 c0 -31 3 -34 35 -38 35 -4 35 -4 35 34 0 37 -1 38 -35 38
-33 0 -35 -2 -35 -34z"/>
<path d="M410 1422 c0 -38 0 -38 35 -34 32 4 35 7 35 38 0 32 -2 34 -35 34
-34 0 -35 -1 -35 -38z"/>
<path d="M500 1425 c0 -33 2 -35 35 -35 33 0 35 2 35 35 0 33 -2 35 -35 35
-33 0 -35 -2 -35 -35z"/>
<path d="M590 1425 c0 -33 2 -35 35 -35 33 0 35 2 35 35 0 33 -2 35 -35 35
-33 0 -35 -2 -35 -35z"/>
<path d="M679 1458 c0 -2 -1 -18 -2 -36 -2 -31 0 -32 36 -32 36 0 37 1 37 35
0 33 -2 35 -35 35 -19 0 -35 -1 -36 -2z"/>
<path d="M1030 1422 c0 -38 0 -38 35 -34 32 4 35 7 35 38 0 32 -2 34 -35 34
-34 0 -35 -1 -35 -38z"/>
<path d="M1120 1426 c0 -31 3 -34 35 -38 35 -4 35 -4 35 34 0 37 -1 38 -35 38
-33 0 -35 -2 -35 -34z"/>
<path d="M1470 1425 c0 -34 1 -35 40 -35 39 0 40 1 40 35 0 34 -1 35 -40 35
-39 0 -40 -1 -40 -35z"/>
<path d="M1569 1458 c0 -2 -2 -18 -3 -35 -4 -32 -2 -33 33 -33 34 0 36 2 35
32 -1 29 -4 33 -32 36 -18 2 -32 2 -33 0z"/>
<path d="M1650 1425 c0 -33 2 -35 35 -35 33 0 35 2 35 35 0 33 -2 35 -35 35
-33 0 -35 -2 -35 -35z"/>
<path d="M1740 1420 c0 -39 1 -40 35 -40 34 0 35 1 35 40 0 39 -1 40 -35 40
-34 0 -35 -1 -35 -40z"/>
<path d="M50 1335 c0 -33 2 -35 35 -35 33 0 35 2 35 35 0 33 -2 35 -35 35 -33
0 -35 -2 -35 -35z"/>
<path d="M410 1335 c0 -33 2 -35 35 -35 33 0 35 2 35 35 0 33 -2 35 -35 35
-33 0 -35 -2 -35 -35z"/>
<path d="M500 1335 c0 -33 2 -35 35 -35 33 0 35 2 35 35 0 33 -2 35 -35 35
-33 0 -35 -2 -35 -35z"/>
<path d="M590 1335 c0 -33 2 -35 35 -35 33 0 35 2 35 35 0 33 -2 35 -35 35
-33 0 -35 -2 -35 -35z"/>
<path d="M675 1335 c0 -34 1 -35 38 -35 36 0 37 1 37 35 0 34 -1 35 -37 35
-37 0 -38 -1 -38 -35z"/>
<path d="M1030 1335 c0 -33 2 -35 35 -35 33 0 35 2 35 35 0 33 -2 35 -35 35
-33 0 -35 -2 -35 -35z"/>
<path d="M1120 1335 c0 -33 2 -35 35 -35 33 0 35 2 35 35 0 33 -2 35 -35 35
-33 0 -35 -2 -35 -35z"/>
<path d="M1470 1337 c0 -42 2 -44 45 -39 32 4 35 7 35 38 0 33 -1 34 -40 34
-39 0 -40 -1 -40 -33z"/>
<path d="M1564 1335 c0 -34 2 -35 36 -35 34 0 36 1 36 35 0 34 -2 35 -36 35
-34 0 -36 -1 -36 -35z"/>
<path d="M1650 1335 c0 -32 2 -35 30 -35 17 0 33 0 38 0 4 0 8 16 9 35 2 34 2
35 -37 35 -39 0 -40 -1 -40 -35z"/>
<path d="M50 1245 c0 -33 2 -35 35 -35 33 0 35 2 35 35 0 33 -2 35 -35 35 -33
0 -35 -2 -35 -35z"/>
<path d="M410 1245 c0 -33 2 -35 35 -35 33 0 35 2 35 35 0 33 -2 35 -35 35
-33 0 -35 -2 -35 -35z"/>
<path d="M500 1245 c0 -33 2 -35 35 -35 33 0 35 2 35 35 0 33 -2 35 -35 35
-33 0 -35 -2 -35 -35z"/>
<path d="M590 1245 c0 -33 2 -35 35 -35 33 0 35 2 35 35 0 33 -2 35 -35 35
-33 0 -35 -2 -35 -35z"/>
<path d="M675 1245 c0 -34 1 -35 38 -35 36 0 37 1 37 35 0 34 -1 35 -37 35
-37 0 -38 -1 -38 -35z"/>
<path d="M1030 1245 c0 -33 2 -35 35 -35 33 0 35 2 35 35 0 33 -2 35 -35 35
-33 0 -35 -2 -35 -35z"/>
<path d="M1120 1245 c0 -33 2 -35 35 -35 33 0 35 2 35 35 0 33 -2 35 -35 35
-33 0 -35 -2 -35 -35z"/>
<path d="M50 1155 c0 -33 2 -35 34 -35 31 0 34 3 38 35 4 35 4 35 -34 35 -37
0 -38 -1 -38 -35z"/>
<path d="M410 1155 c0 -33 2 -35 35 -35 33 0 35 2 35 35 0 33 -2 35 -35 35
-33 0 -35 -2 -35 -35z"/>
<path d="M500 1155 c0 -33 2 -35 35 -35 33 0 35 2 35 35 0 33 -2 35 -35 35
-33 0 -35 -2 -35 -35z"/>
<path d="M590 1155 c0 -33 2 -35 35 -35 33 0 35 2 35 35 0 33 -2 35 -35 35
-33 0 -35 -2 -35 -35z"/>
<path d="M675 1155 c0 -34 1 -35 38 -35 36 0 37 1 37 35 0 34 -1 35 -37 35
-37 0 -38 -1 -38 -35z"/>
<path d="M1030 1155 c0 -33 2 -35 35 -35 33 0 35 2 35 35 0 33 -2 35 -35 35
-33 0 -35 -2 -35 -35z"/>
<path d="M1120 1155 c0 -33 2 -35 35 -35 33 0 35 2 35 35 0 33 -2 35 -35 35
-33 0 -35 -2 -35 -35z"/>
<path d="M2010 1155 c0 -33 2 -35 35 -35 33 0 35 2 35 35 0 33 -2 35 -35 35
-33 0 -35 -2 -35 -35z"/>
<path d="M50 1065 c0 -34 1 -35 38 -35 36 0 37 1 37 35 0 34 -1 35 -37 35 -37
0 -38 -1 -38 -35z"/>
<path d="M410 1065 c0 -33 2 -35 35 -35 33 0 35 2 35 35 0 33 -2 35 -35 35
-33 0 -35 -2 -35 -35z"/>
<path d="M500 1065 c0 -33 2 -35 35 -35 33 0 35 2 35 35 0 33 -2 35 -35 35
-33 0 -35 -2 -35 -35z"/>
<path d="M590 1065 c0 -33 2 -35 35 -35 33 0 35 2 35 35 0 33 -2 35 -35 35
-33 0 -35 -2 -35 -35z"/>
<path d="M675 1065 c0 -34 1 -35 38 -35 36 0 37 1 37 35 0 34 -1 35 -37 35
-37 0 -38 -1 -38 -35z"/>
<path d="M1030 1065 c0 -33 2 -35 35 -35 33 0 35 2 35 35 0 33 -2 35 -35 35
-33 0 -35 -2 -35 -35z"/>
<path d="M1120 1065 c0 -33 2 -35 35 -35 33 0 35 2 35 35 0 33 -2 35 -35 35
-33 0 -35 -2 -35 -35z"/>
<path d="M1920 1065 c0 -33 2 -35 35 -35 33 0 35 2 35 35 0 33 -2 35 -35 35
-33 0 -35 -2 -35 -35z"/>
<path d="M2010 1065 c0 -33 2 -35 35 -35 33 0 35 2 35 35 0 33 -2 35 -35 35
-33 0 -35 -2 -35 -35z"/>
<path d="M50 975 c0 -33 2 -35 35 -35 33 0 35 2 35 35 0 33 -2 35 -35 35 -33
0 -35 -2 -35 -35z"/>
<path d="M410 975 c0 -33 2 -35 35 -35 33 0 35 2 35 35 0 33 -2 35 -35 35 -33
0 -35 -2 -35 -35z"/>
<path d="M500 975 c0 -33 2 -35 35 -35 33 0 35 2 35 35 0 33 -2 35 -35 35 -33
0 -35 -2 -35 -35z"/>
<path d="M590 975 c0 -33 2 -35 35 -35 33 0 35 2 35 35 0 33 -2 35 -35 35 -33
0 -35 -2 -35 -35z"/>
<path d="M674 975 c0 -34 1 -35 38 -35 37 0 38 1 38 35 0 34 -1 35 -37 35 -37
0 -38 -1 -39 -35z"/>
<path d="M1030 975 c0 -33 2 -35 35 -35 33 0 35 2 35 35 0 33 -2 35 -35 35
-33 0 -35 -2 -35 -35z"/>
<path d="M1120 975 c0 -33 2 -35 35 -35 33 0 35 2 35 35 0 33 -2 35 -35 35
-33 0 -35 -2 -35 -35z"/>
<path d="M1470 975 c0 -34 1 -35 40 -35 39 0 40 1 40 35 0 34 -1 35 -40 35
-39 0 -40 -1 -40 -35z"/>
<path d="M1564 975 c0 -34 2 -35 36 -35 34 0 36 1 36 35 0 34 -2 35 -36 35
-34 0 -36 -1 -36 -35z"/>
<path d="M1650 975 c0 -33 2 -35 34 -35 31 0 34 3 38 35 4 35 4 35 -34 35 -37
0 -38 -1 -38 -35z"/>
<path d="M1740 975 c0 -33 2 -35 35 -35 33 0 35 2 35 35 0 33 -2 35 -35 35
-33 0 -35 -2 -35 -35z"/>
<path d="M1830 975 c0 -33 2 -35 35 -35 33 0 35 2 35 35 0 33 -2 35 -35 35
-33 0 -35 -2 -35 -35z"/>
<path d="M1920 975 c0 -33 2 -35 35 -35 33 0 35 2 35 35 0 33 -2 35 -35 35
-33 0 -35 -2 -35 -35z"/>
<path d="M2010 975 c0 -33 2 -35 35 -35 33 0 35 2 35 35 0 33 -2 35 -35 35
-33 0 -35 -2 -35 -35z"/>
<path d="M50 885 c0 -33 2 -35 35 -35 33 0 35 2 35 35 0 33 -2 35 -35 35 -33
0 -35 -2 -35 -35z"/>
<path d="M410 885 c0 -33 2 -35 35 -35 33 0 35 2 35 35 0 33 -2 35 -35 35 -33
0 -35 -2 -35 -35z"/>
<path d="M500 885 c0 -33 2 -35 35 -35 33 0 35 2 35 35 0 33 -2 35 -35 35 -33
0 -35 -2 -35 -35z"/>
<path d="M588 885 c-4 -35 -4 -35 34 -35 37 0 38 1 38 35 0 33 -2 35 -34 35
-31 0 -34 -3 -38 -35z"/>
<path d="M1030 885 c0 -33 2 -35 35 -35 33 0 35 2 35 35 0 33 -2 35 -35 35
-33 0 -35 -2 -35 -35z"/>
<path d="M1120 885 c0 -33 2 -35 35 -35 33 0 35 2 35 35 0 33 -2 35 -35 35
-33 0 -35 -2 -35 -35z"/>
<path d="M1470 885 c0 -34 1 -35 40 -35 39 0 40 1 40 35 0 34 -1 35 -40 35
-39 0 -40 -1 -40 -35z"/>
<path d="M1564 885 c0 -34 1 -35 36 -35 35 0 36 1 36 35 -1 33 -3 35 -36 35
-34 0 -36 -2 -36 -35z"/>
<path d="M1650 885 c0 -33 2 -35 35 -35 33 0 35 2 35 35 0 33 -2 35 -35 35
-33 0 -35 -2 -35 -35z"/>
<path d="M1740 885 c0 -33 2 -35 35 -35 33 0 35 2 35 35 0 33 -2 35 -35 35
-33 0 -35 -2 -35 -35z"/>
<path d="M1830 885 c0 -33 2 -35 35 -35 33 0 35 2 35 35 0 33 -2 35 -35 35
-33 0 -35 -2 -35 -35z"/>
<path d="M1920 885 c0 -33 2 -35 35 -35 33 0 35 2 35 35 0 33 -2 35 -35 35
-33 0 -35 -2 -35 -35z"/>
<path d="M2010 885 c0 -33 2 -35 35 -35 33 0 35 2 35 35 0 33 -2 35 -35 35
-33 0 -35 -2 -35 -35z"/>
<path d="M1030 798 c0 -37 1 -38 35 -38 33 0 35 2 35 34 0 31 -3 34 -35 38
-35 4 -35 4 -35 -34z"/>
<path d="M1153 833 c-30 -4 -33 -7 -33 -39 0 -32 2 -34 35 -34 34 0 35 1 35
40 0 22 -1 39 -2 38 -2 0 -18 -3 -35 -5z"/>
<path d="M50 795 c0 -33 2 -35 35 -35 33 0 35 2 35 35 0 33 -2 35 -35 35 -33
0 -35 -2 -35 -35z"/>
<path d="M1472 798 c3 -30 6 -33 41 -36 36 -3 37 -3 37 32 0 35 -1 36 -41 36
-39 0 -40 -1 -37 -32z"/>
<path d="M1565 798 c2 -30 5 -33 35 -33 30 0 33 3 34 33 1 30 -1 32 -35 32
-35 0 -37 -1 -34 -32z"/>
<path d="M1650 795 c0 -33 2 -35 35 -35 33 0 35 2 35 35 0 33 -2 35 -35 35
-33 0 -35 -2 -35 -35z"/>
<path d="M1740 795 c0 -33 2 -35 35 -35 33 0 35 2 35 35 0 33 -2 35 -35 35
-33 0 -35 -2 -35 -35z"/>
<path d="M1830 795 c0 -33 2 -35 35 -35 33 0 35 2 35 35 0 33 -2 35 -35 35
-33 0 -35 -2 -35 -35z"/>
<path d="M1920 795 c0 -33 2 -35 35 -35 33 0 35 2 35 35 0 33 -2 35 -35 35
-33 0 -35 -2 -35 -35z"/>
<path d="M2010 795 c0 -33 2 -35 35 -35 33 0 35 2 35 35 0 33 -2 35 -35 35
-33 0 -35 -2 -35 -35z"/>
<path d="M78 743 c-23 -4 -28 -9 -28 -34 0 -22 5 -29 19 -29 11 0 26 -3 35 -6
13 -5 16 2 16 35 0 23 -3 40 -7 40 -5 -1 -20 -4 -35 -6z"/>
<path d="M940 712 c0 -37 1 -38 35 -38 34 0 35 1 35 38 0 37 -1 38 -35 38 -34
0 -35 -1 -35 -38z"/>
<path d="M1030 710 c0 -35 1 -36 35 -36 33 0 35 2 35 36 0 33 -2 35 -35 36
-34 0 -35 -1 -35 -36z"/>
<path d="M1120 710 c0 -34 1 -36 35 -36 34 0 35 2 35 36 0 34 -1 36 -35 36
-34 0 -35 -2 -35 -36z"/>
<path d="M1473 735 c-2 -8 -3 -24 -1 -36 2 -19 10 -23 41 -25 38 -1 38 0 35
34 -3 31 -6 35 -36 37 -21 2 -35 -2 -39 -10z"/>
<path d="M1569 743 c0 -2 -1 -17 -2 -35 -1 -29 2 -32 33 -32 31 0 34 3 34 34
0 30 -3 33 -32 34 -18 1 -32 0 -33 -1z"/>
<path d="M1653 733 c-3 -6 -3 -21 -1 -34 2 -16 11 -22 36 -24 31 -3 32 -1 32
34 0 34 -2 36 -31 36 -17 0 -34 -5 -36 -12z"/>
<path d="M1740 710 c0 -34 2 -36 35 -36 33 0 35 2 35 36 0 33 -2 35 -35 35
-33 0 -35 -2 -35 -35z"/>
<path d="M1830 710 c0 -35 1 -36 35 -36 33 0 35 2 35 36 0 33 -2 35 -35 36
-34 0 -35 -1 -35 -36z"/>
<path d="M1920 710 c0 -35 1 -36 35 -36 33 0 35 2 35 36 0 33 -2 35 -35 36
-34 0 -35 -1 -35 -36z"/>
<path d="M2010 710 c0 -34 1 -36 35 -36 34 0 35 2 35 36 0 34 -1 36 -35 36
-34 0 -35 -2 -35 -36z"/>
<path d="M50 625 c0 -33 2 -35 35 -35 33 0 35 2 35 35 0 33 -2 35 -35 35 -33
0 -35 -2 -35 -35z"/>
<path d="M850 622 c0 -38 0 -38 35 -34 32 4 35 7 35 38 0 32 -2 34 -35 34 -34
0 -35 -1 -35 -38z"/>
<path d="M940 625 c0 -33 2 -35 35 -35 33 0 35 2 35 35 0 33 -2 35 -35 35 -33
0 -35 -2 -35 -35z"/>
<path d="M1030 625 c0 -33 2 -35 35 -35 33 0 35 2 35 35 0 33 -2 35 -35 35
-33 0 -35 -2 -35 -35z"/>
<path d="M1120 626 c0 -31 3 -34 35 -38 35 -4 35 -4 35 34 0 37 -1 38 -35 38
-33 0 -35 -2 -35 -34z"/>
<path d="M1477 653 c-4 -3 -7 -19 -7 -35 0 -26 3 -28 40 -28 39 0 40 1 40 35
0 33 -2 35 -33 35 -19 0 -37 -3 -40 -7z"/>
<path d="M1569 658 c0 -2 -2 -18 -3 -35 -4 -32 -2 -33 33 -33 34 0 36 2 35 32
-1 29 -4 33 -32 36 -18 2 -32 2 -33 0z"/>
<path d="M1650 625 c0 -33 2 -35 35 -35 33 0 35 2 35 35 0 33 -2 35 -35 35
-33 0 -35 -2 -35 -35z"/>
<path d="M1740 625 c0 -33 2 -35 35 -35 33 0 35 2 35 35 0 33 -2 35 -35 35
-33 0 -35 -2 -35 -35z"/>
<path d="M1830 625 c0 -33 2 -35 35 -35 33 0 35 2 35 35 0 33 -2 35 -35 35
-33 0 -35 -2 -35 -35z"/>
<path d="M1920 625 c0 -33 2 -35 35 -35 33 0 35 2 35 35 0 33 -2 35 -35 35
-33 0 -35 -2 -35 -35z"/>
<path d="M2010 625 c0 -33 2 -35 35 -35 33 0 35 2 35 35 0 33 -2 35 -35 35
-33 0 -35 -2 -35 -35z"/>
<path d="M50 535 c0 -33 2 -35 35 -35 33 0 35 2 35 35 0 33 -2 35 -35 35 -33
0 -35 -2 -35 -35z"/>
<path d="M140 535 c0 -33 2 -35 35 -35 33 0 35 2 35 35 0 33 -2 35 -35 35 -33
0 -35 -2 -35 -35z"/>
<path d="M230 535 c0 -33 2 -35 35 -35 33 0 35 2 35 35 0 33 -2 35 -35 35 -33
0 -35 -2 -35 -35z"/>
<path d="M320 535 c0 -33 2 -35 35 -35 33 0 35 2 35 35 0 33 -2 35 -35 35 -33
0 -35 -2 -35 -35z"/>
<path d="M410 535 c0 -33 2 -35 35 -35 33 0 35 2 35 35 0 33 -2 35 -35 35 -33
0 -35 -2 -35 -35z"/>
<path d="M500 535 c0 -33 2 -35 35 -35 33 0 35 2 35 35 0 33 -2 35 -35 35 -33
0 -35 -2 -35 -35z"/>
<path d="M588 535 c4 -32 7 -35 38 -35 32 0 34 2 34 35 0 34 -1 35 -38 35 -38
0 -38 0 -34 -35z"/>
<path d="M674 535 c1 -33 3 -35 37 -35 33 0 35 2 36 35 1 34 0 35 -36 35 -36
0 -37 -1 -37 -35z"/>
<path d="M760 535 c0 -33 2 -35 34 -35 31 0 34 3 38 35 4 35 4 35 -34 35 -37
0 -38 -1 -38 -35z"/>
<path d="M850 535 c0 -33 2 -35 35 -35 33 0 35 2 35 35 0 33 -2 35 -35 35 -33
0 -35 -2 -35 -35z"/>
<path d="M940 535 c0 -33 2 -35 35 -35 33 0 35 2 35 35 0 33 -2 35 -35 35 -33
0 -35 -2 -35 -35z"/>
<path d="M1030 535 c0 -33 2 -35 35 -35 33 0 35 2 35 35 0 33 -2 35 -35 35
-33 0 -35 -2 -35 -35z"/>
<path d="M1120 535 c0 -33 2 -35 35 -35 33 0 35 2 35 35 0 33 -2 35 -35 35
-33 0 -35 -2 -35 -35z"/>
<path d="M1210 535 c0 -33 2 -35 35 -35 33 0 35 2 35 35 0 33 -2 35 -35 35
-33 0 -35 -2 -35 -35z"/>
<path d="M1300 535 c0 -33 2 -35 35 -35 33 0 35 2 35 35 0 33 -2 35 -35 35
-33 0 -35 -2 -35 -35z"/>
<path d="M1390 535 c0 -33 2 -35 35 -35 33 0 35 2 35 35 0 33 -2 35 -35 35
-33 0 -35 -2 -35 -35z"/>
<path d="M1480 535 c0 -33 2 -35 35 -35 33 0 35 2 35 35 0 33 -2 35 -35 35
-33 0 -35 -2 -35 -35z"/>
<path d="M1564 535 c0 -33 2 -35 36 -35 33 0 35 2 36 35 0 34 -1 35 -36 35
-35 0 -36 -1 -36 -35z"/>
<path d="M1650 535 c0 -33 2 -35 35 -35 33 0 35 2 35 35 0 33 -2 35 -35 35
-33 0 -35 -2 -35 -35z"/>
<path d="M1740 535 c0 -33 2 -35 35 -35 33 0 35 2 35 35 0 33 -2 35 -35 35
-33 0 -35 -2 -35 -35z"/>
<path d="M1830 535 c0 -33 2 -35 35 -35 33 0 35 2 35 35 0 33 -2 35 -35 35
-33 0 -35 -2 -35 -35z"/>
<path d="M1920 535 c0 -33 2 -35 35 -35 33 0 35 2 35 35 0 33 -2 35 -35 35
-33 0 -35 -2 -35 -35z"/>
<path d="M2010 535 c0 -33 2 -35 35 -35 33 0 35 2 35 35 0 33 -2 35 -35 35
-33 0 -35 -2 -35 -35z"/>
<path d="M50 445 c0 -33 2 -35 35 -35 33 0 35 2 35 35 0 33 -2 35 -35 35 -33
0 -35 -2 -35 -35z"/>
<path d="M140 445 c0 -33 2 -35 35 -35 33 0 35 2 35 35 0 33 -2 35 -35 35 -33
0 -35 -2 -35 -35z"/>
<path d="M230 445 c0 -33 2 -35 35 -35 33 0 35 2 35 35 0 33 -2 35 -35 35 -33
0 -35 -2 -35 -35z"/>
<path d="M320 445 c0 -33 2 -35 35 -35 33 0 35 2 35 35 0 33 -2 35 -35 35 -33
0 -35 -2 -35 -35z"/>
<path d="M410 445 c0 -33 2 -35 35 -35 33 0 35 2 35 35 0 33 -2 35 -35 35 -33
0 -35 -2 -35 -35z"/>
<path d="M500 445 c0 -33 2 -35 35 -35 33 0 35 2 35 35 0 33 -2 35 -35 35 -33
0 -35 -2 -35 -35z"/>
<path d="M590 445 c0 -33 2 -35 35 -35 33 0 35 2 35 35 0 33 -2 35 -35 35 -33
0 -35 -2 -35 -35z"/>
<path d="M675 445 c0 -34 1 -35 37 -35 35 0 36 1 36 35 0 34 -1 35 -36 35 -36
0 -37 -1 -37 -35z"/>
<path d="M760 445 c0 -33 2 -35 35 -35 33 0 35 2 35 35 0 33 -2 35 -35 35 -33
0 -35 -2 -35 -35z"/>
<path d="M850 445 c0 -33 2 -35 35 -35 33 0 35 2 35 35 0 33 -2 35 -35 35 -33
0 -35 -2 -35 -35z"/>
<path d="M940 445 c0 -33 2 -35 35 -35 33 0 35 2 35 35 0 33 -2 35 -35 35 -33
0 -35 -2 -35 -35z"/>
<path d="M1030 445 c0 -33 2 -35 35 -35 33 0 35 2 35 35 0 33 -2 35 -35 35
-33 0 -35 -2 -35 -35z"/>
<path d="M1120 445 c0 -33 2 -35 35 -35 33 0 35 2 35 35 0 33 -2 35 -35 35
-33 0 -35 -2 -35 -35z"/>
<path d="M1210 445 c0 -33 2 -35 35 -35 33 0 35 2 35 35 0 33 -2 35 -35 35
-33 0 -35 -2 -35 -35z"/>
<path d="M1300 445 c0 -33 2 -35 35 -35 33 0 35 2 35 35 0 33 -2 35 -35 35
-33 0 -35 -2 -35 -35z"/>
<path d="M1390 445 c0 -33 2 -35 35 -35 33 0 35 2 35 35 0 33 -2 35 -35 35
-33 0 -35 -2 -35 -35z"/>
<path d="M1480 445 c0 -33 2 -35 35 -35 33 0 35 2 35 35 0 33 -2 35 -35 35
-33 0 -35 -2 -35 -35z"/>
<path d="M1564 445 c0 -34 2 -35 36 -35 34 0 36 1 36 35 0 34 -2 35 -36 35
-34 0 -36 -1 -36 -35z"/>
<path d="M1650 445 c0 -33 2 -35 35 -35 33 0 35 2 35 35 0 33 -2 35 -35 35
-33 0 -35 -2 -35 -35z"/>
<path d="M1740 445 c0 -33 2 -35 35 -35 33 0 35 2 35 35 0 33 -2 35 -35 35
-33 0 -35 -2 -35 -35z"/>
<path d="M1830 445 c0 -33 2 -35 35 -35 33 0 35 2 35 35 0 33 -2 35 -35 35
-33 0 -35 -2 -35 -35z"/>
<path d="M1920 445 c0 -33 2 -35 35 -35 33 0 35 2 35 35 0 33 -2 35 -35 35
-33 0 -35 -2 -35 -35z"/>
<path d="M2010 445 c0 -33 2 -35 35 -35 33 0 35 2 35 35 0 33 -2 35 -35 35
-33 0 -35 -2 -35 -35z"/>
<path d="M50 355 c0 -33 2 -35 35 -35 33 0 35 2 35 35 0 33 -2 35 -35 35 -33
0 -35 -2 -35 -35z"/>
<path d="M140 355 c0 -33 2 -35 35 -35 33 0 35 2 35 35 0 33 -2 35 -35 35 -33
0 -35 -2 -35 -35z"/>
<path d="M230 355 c0 -33 2 -35 35 -35 33 0 35 2 35 35 0 33 -2 35 -35 35 -33
0 -35 -2 -35 -35z"/>
<path d="M320 355 c0 -33 2 -35 35 -35 33 0 35 2 35 35 0 33 -2 35 -35 35 -33
0 -35 -2 -35 -35z"/>
<path d="M410 355 c0 -33 2 -35 35 -35 33 0 35 2 35 35 0 33 -2 35 -35 35 -33
0 -35 -2 -35 -35z"/>
<path d="M500 355 c0 -33 2 -35 35 -35 33 0 35 2 35 35 0 33 -2 35 -35 35 -33
0 -35 -2 -35 -35z"/>
<path d="M590 355 c0 -33 2 -35 35 -35 33 0 35 2 35 35 0 33 -2 35 -35 35 -33
0 -35 -2 -35 -35z"/>
<path d="M675 355 c0 -34 1 -35 37 -35 35 0 36 1 36 35 0 34 -1 35 -36 35 -36
0 -37 -1 -37 -35z"/>
<path d="M760 355 c0 -33 2 -35 35 -35 33 0 35 2 35 35 0 33 -2 35 -35 35 -33
0 -35 -2 -35 -35z"/>
<path d="M850 355 c0 -33 2 -35 35 -35 33 0 35 2 35 35 0 33 -2 35 -35 35 -33
0 -35 -2 -35 -35z"/>
<path d="M940 355 c0 -33 2 -35 35 -35 33 0 35 2 35 35 0 33 -2 35 -35 35 -33
0 -35 -2 -35 -35z"/>
<path d="M1030 355 c0 -33 2 -35 35 -35 33 0 35 2 35 35 0 33 -2 35 -35 35
-33 0 -35 -2 -35 -35z"/>
<path d="M1120 355 c0 -33 2 -35 35 -35 33 0 35 2 35 35 0 33 -2 35 -35 35
-33 0 -35 -2 -35 -35z"/>
<path d="M1210 355 c0 -33 2 -35 35 -35 33 0 35 2 35 35 0 33 -2 35 -35 35
-33 0 -35 -2 -35 -35z"/>
<path d="M1300 355 c0 -33 2 -35 35 -35 33 0 35 2 35 35 0 33 -2 35 -35 35
-33 0 -35 -2 -35 -35z"/>
<path d="M1390 355 c0 -33 2 -35 35 -35 33 0 35 2 35 35 0 33 -2 35 -35 35
-33 0 -35 -2 -35 -35z"/>
<path d="M1480 355 c0 -33 2 -35 35 -35 33 0 35 2 35 35 0 33 -2 35 -35 35
-33 0 -35 -2 -35 -35z"/>
<path d="M1564 355 c0 -34 2 -35 36 -35 34 0 36 1 36 35 0 34 -2 35 -36 35
-34 0 -36 -1 -36 -35z"/>
<path d="M1650 355 c0 -33 2 -35 35 -35 33 0 35 2 35 35 0 33 -2 35 -35 35
-33 0 -35 -2 -35 -35z"/>
<path d="M1740 355 c0 -33 2 -35 35 -35 33 0 35 2 35 35 0 33 -2 35 -35 35
-33 0 -35 -2 -35 -35z"/>
<path d="M1830 355 c0 -33 2 -35 35 -35 33 0 35 2 35 35 0 33 -2 35 -35 35
-33 0 -35 -2 -35 -35z"/>
<path d="M1920 355 c0 -33 2 -35 35 -35 33 0 35 2 35 35 0 33 -2 35 -35 35
-33 0 -35 -2 -35 -35z"/>
<path d="M2010 355 c0 -33 2 -35 35 -35 33 0 35 2 35 35 0 33 -2 35 -35 35
-33 0 -35 -2 -35 -35z"/>
<path d="M50 265 c0 -33 2 -35 35 -35 33 0 35 2 35 35 0 33 -2 35 -35 35 -33
0 -35 -2 -35 -35z"/>
<path d="M140 265 c0 -33 2 -35 35 -35 33 0 35 2 35 35 0 33 -2 35 -35 35 -33
0 -35 -2 -35 -35z"/>
<path d="M230 265 c0 -33 2 -35 35 -35 33 0 35 2 35 35 0 33 -2 35 -35 35 -33
0 -35 -2 -35 -35z"/>
<path d="M320 265 c0 -33 2 -35 35 -35 33 0 35 2 35 35 0 33 -2 35 -35 35 -33
0 -35 -2 -35 -35z"/>
<path d="M410 265 c0 -33 2 -35 35 -35 33 0 35 2 35 35 0 33 -2 35 -35 35 -33
0 -35 -2 -35 -35z"/>
<path d="M500 265 c0 -33 2 -35 35 -35 33 0 35 2 35 35 0 33 -2 35 -35 35 -33
0 -35 -2 -35 -35z"/>
<path d="M590 265 c0 -33 2 -35 35 -35 33 0 35 2 35 35 0 33 -2 35 -35 35 -33
0 -35 -2 -35 -35z"/>
<path d="M675 265 c0 -34 1 -35 37 -35 35 0 36 1 36 35 0 34 -1 35 -36 35 -36
0 -37 -1 -37 -35z"/>
<path d="M760 265 c0 -33 2 -35 35 -35 33 0 35 2 35 35 0 33 -2 35 -35 35 -33
0 -35 -2 -35 -35z"/>
<path d="M850 265 c0 -33 2 -35 35 -35 33 0 35 2 35 35 0 33 -2 35 -35 35 -33
0 -35 -2 -35 -35z"/>
<path d="M940 265 c0 -33 2 -35 35 -35 33 0 35 2 35 35 0 33 -2 35 -35 35 -33
0 -35 -2 -35 -35z"/>
<path d="M1030 265 c0 -33 2 -35 35 -35 33 0 35 2 35 35 0 33 -2 35 -35 35
-33 0 -35 -2 -35 -35z"/>
<path d="M1120 265 c0 -33 2 -35 35 -35 33 0 35 2 35 35 0 33 -2 35 -35 35
-33 0 -35 -2 -35 -35z"/>
<path d="M1210 265 c0 -33 2 -35 35 -35 33 0 35 2 35 35 0 33 -2 35 -35 35
-33 0 -35 -2 -35 -35z"/>
<path d="M1300 265 c0 -33 2 -35 35 -35 33 0 35 2 35 35 0 33 -2 35 -35 35
-33 0 -35 -2 -35 -35z"/>
<path d="M1390 265 c0 -33 2 -35 35 -35 33 0 35 2 35 35 0 33 -2 35 -35 35
-33 0 -35 -2 -35 -35z"/>
<path d="M1480 265 c0 -33 2 -35 35 -35 33 0 35 2 35 35 0 33 -2 35 -35 35
-33 0 -35 -2 -35 -35z"/>
<path d="M1564 265 c0 -34 2 -35 36 -35 34 0 36 1 36 35 0 34 -2 35 -36 35
-34 0 -36 -1 -36 -35z"/>
<path d="M1650 265 c0 -33 2 -35 35 -35 33 0 35 2 35 35 0 33 -2 35 -35 35
-33 0 -35 -2 -35 -35z"/>
<path d="M1740 265 c0 -33 2 -35 35 -35 33 0 35 2 35 35 0 33 -2 35 -35 35
-33 0 -35 -2 -35 -35z"/>
<path d="M1830 265 c0 -33 2 -35 35 -35 33 0 35 2 35 35 0 33 -2 35 -35 35
-33 0 -35 -2 -35 -35z"/>
<path d="M1920 265 c0 -33 2 -35 35 -35 33 0 35 2 35 35 0 33 -2 35 -35 35
-33 0 -35 -2 -35 -35z"/>
<path d="M2010 265 c0 -33 2 -35 35 -35 33 0 35 2 35 35 0 33 -2 35 -35 35
-33 0 -35 -2 -35 -35z"/>
<path d="M50 175 c0 -33 2 -35 35 -35 33 0 35 2 35 35 0 33 -2 35 -35 35 -33
0 -35 -2 -35 -35z"/>
<path d="M140 175 c0 -33 2 -35 35 -35 33 0 35 2 35 35 0 33 -2 35 -35 35 -33
0 -35 -2 -35 -35z"/>
<path d="M230 175 c0 -33 2 -35 35 -35 33 0 35 2 35 35 0 33 -2 35 -35 35 -33
0 -35 -2 -35 -35z"/>
<path d="M320 175 c0 -33 2 -35 35 -35 33 0 35 2 35 35 0 33 -2 35 -35 35 -33
0 -35 -2 -35 -35z"/>
<path d="M410 175 c0 -33 2 -35 35 -35 33 0 35 2 35 35 0 33 -2 35 -35 35 -33
0 -35 -2 -35 -35z"/>
<path d="M500 175 c0 -33 2 -35 35 -35 33 0 35 2 35 35 0 33 -2 35 -35 35 -33
0 -35 -2 -35 -35z"/>
<path d="M590 175 c0 -33 2 -35 35 -35 33 0 35 2 35 35 0 33 -2 35 -35 35 -33
0 -35 -2 -35 -35z"/>
<path d="M675 175 c0 -34 1 -35 37 -35 35 0 36 1 35 35 -1 33 -3 35 -36 35
-34 0 -36 -2 -36 -35z"/>
<path d="M760 175 c0 -33 2 -35 35 -35 33 0 35 2 35 35 0 33 -2 35 -35 35 -33
0 -35 -2 -35 -35z"/>
<path d="M850 175 c0 -33 2 -35 35 -35 33 0 35 2 35 35 0 33 -2 35 -35 35 -33
0 -35 -2 -35 -35z"/>
<path d="M940 175 c0 -33 2 -35 35 -35 33 0 35 2 35 35 0 33 -2 35 -35 35 -33
0 -35 -2 -35 -35z"/>
<path d="M1030 175 c0 -33 2 -35 35 -35 33 0 35 2 35 35 0 33 -2 35 -35 35
-33 0 -35 -2 -35 -35z"/>
<path d="M1120 175 c0 -33 2 -35 35 -35 33 0 35 2 35 35 0 33 -2 35 -35 35
-33 0 -35 -2 -35 -35z"/>
<path d="M1210 175 c0 -33 2 -35 35 -35 33 0 35 2 35 35 0 33 -2 35 -35 35
-33 0 -35 -2 -35 -35z"/>
<path d="M1300 175 c0 -33 2 -35 35 -35 33 0 35 2 35 35 0 33 -2 35 -35 35
-33 0 -35 -2 -35 -35z"/>
<path d="M1390 175 c0 -33 2 -35 35 -35 33 0 35 2 35 35 0 33 -2 35 -35 35
-33 0 -35 -2 -35 -35z"/>
<path d="M1480 175 c0 -33 2 -35 35 -35 33 0 35 2 35 35 0 33 -2 35 -35 35
-33 0 -35 -2 -35 -35z"/>
<path d="M1564 175 c0 -34 2 -35 36 -35 34 0 36 1 36 35 0 34 -2 35 -36 35
-34 0 -36 -1 -36 -35z"/>
<path d="M1650 175 c0 -33 2 -35 35 -35 33 0 35 2 35 35 0 33 -2 35 -35 35
-33 0 -35 -2 -35 -35z"/>
<path d="M1740 175 c0 -33 2 -35 35 -35 33 0 35 2 35 35 0 33 -2 35 -35 35
-33 0 -35 -2 -35 -35z"/>
<path d="M1830 175 c0 -33 2 -35 35 -35 33 0 35 2 35 35 0 33 -2 35 -35 35
-33 0 -35 -2 -35 -35z"/>
<path d="M1920 175 c0 -33 2 -35 35 -35 33 0 35 2 35 35 0 33 -2 35 -35 35
-33 0 -35 -2 -35 -35z"/>
<path d="M2010 175 c0 -33 2 -35 35 -35 33 0 35 2 35 35 0 33 -2 35 -35 35
-33 0 -35 -2 -35 -35z"/>
<path d="M50 85 c0 -33 2 -35 35 -35 33 0 35 2 35 35 0 33 -2 35 -35 35 -33 0
-35 -2 -35 -35z"/>
<path d="M140 85 c0 -33 2 -35 35 -35 33 0 35 2 35 35 0 33 -2 35 -35 35 -33
0 -35 -2 -35 -35z"/>
<path d="M230 85 c0 -33 2 -35 35 -35 33 0 35 2 35 35 0 33 -2 35 -35 35 -33
0 -35 -2 -35 -35z"/>
<path d="M320 85 c0 -33 2 -35 35 -35 33 0 35 2 35 35 0 33 -2 35 -35 35 -33
0 -35 -2 -35 -35z"/>
<path d="M410 85 c0 -33 2 -35 35 -35 33 0 35 2 35 35 0 33 -2 35 -35 35 -33
0 -35 -2 -35 -35z"/>
<path d="M500 85 c0 -33 2 -35 35 -35 33 0 35 2 35 35 0 33 -2 35 -35 35 -33
0 -35 -2 -35 -35z"/>
<path d="M590 85 c0 -33 2 -35 35 -35 33 0 35 2 35 35 0 33 -2 35 -35 35 -33
0 -35 -2 -35 -35z"/>
<path d="M675 85 c0 -33 2 -35 36 -35 33 0 35 2 35 35 0 33 -2 35 -35 35 -34
0 -36 -2 -36 -35z"/>
<path d="M760 85 c0 -33 2 -35 35 -35 33 0 35 2 35 35 0 33 -2 35 -35 35 -33
0 -35 -2 -35 -35z"/>
<path d="M850 85 c0 -33 2 -35 35 -35 33 0 35 2 35 35 0 33 -2 35 -35 35 -33
0 -35 -2 -35 -35z"/>
<path d="M940 85 c0 -33 2 -35 35 -35 33 0 35 2 35 35 0 33 -2 35 -35 35 -33
0 -35 -2 -35 -35z"/>
<path d="M1030 85 c0 -33 2 -35 35 -35 33 0 35 2 35 35 0 33 -2 35 -35 35 -33
0 -35 -2 -35 -35z"/>
<path d="M1120 85 c0 -33 2 -35 35 -35 33 0 35 2 35 35 0 33 -2 35 -35 35 -33
0 -35 -2 -35 -35z"/>
<path d="M1210 85 c0 -33 2 -35 35 -35 33 0 35 2 35 35 0 33 -2 35 -35 35 -33
0 -35 -2 -35 -35z"/>
<path d="M1300 85 c0 -33 2 -35 35 -35 33 0 35 2 35 35 0 33 -2 35 -35 35 -33
0 -35 -2 -35 -35z"/>
<path d="M1390 85 c0 -33 2 -35 35 -35 33 0 35 2 35 35 0 33 -2 35 -35 35 -33
0 -35 -2 -35 -35z"/>
<path d="M1480 85 c0 -33 2 -35 35 -35 33 0 35 2 35 35 0 33 -2 35 -35 35 -33
0 -35 -2 -35 -35z"/>
<path d="M1564 85 c1 -33 3 -35 36 -35 33 0 35 2 35 35 0 33 -2 35 -36 35 -34
0 -35 -1 -35 -35z"/>
<path d="M1650 85 c0 -33 2 -35 35 -35 33 0 35 2 35 35 0 33 -2 35 -35 35 -33
0 -35 -2 -35 -35z"/>
<path d="M1740 85 c0 -33 2 -35 35 -35 33 0 35 2 35 35 0 33 -2 35 -35 35 -33
0 -35 -2 -35 -35z"/>
<path d="M1830 85 c0 -33 2 -35 35 -35 33 0 35 2 35 35 0 33 -2 35 -35 35 -33
0 -35 -2 -35 -35z"/>
<path d="M1920 85 c0 -33 2 -35 35 -35 33 0 35 2 35 35 0 33 -2 35 -35 35 -33
0 -35 -2 -35 -35z"/>
<path d="M2010 85 c0 -33 2 -35 35 -35 33 0 35 2 35 35 0 33 -2 35 -35 35 -33
0 -35 -2 -35 -35z"/>
</g>
</svg>
